<svg xmlns="http://www.w3.org/2000/svg" xmlns:xlink="http://www.w3.org/1999/xlink" version="1.2" baseProfile="tiny" viewBox="0 0 360 360" width="250" height="250"><desc><pre>. . . . . . . .
. . . . . . . .
. . . . . . . .
. . . . . . . .
. . . Q . . . .
. . . . . . . .
. . . . . . . .
. . . . . . . .</pre></desc><defs><g id="white-queen" class="white queen" fill="#fff" fill-rule="evenodd" stroke="#000" stroke-width="1.5" stroke-linecap="round" stroke-linejoin="round"><path d="M8 12a2 2 0 1 1-4 0 2 2 0 1 1 4 0zM24.5 7.5a2 2 0 1 1-4 0 2 2 0 1 1 4 0zM41 12a2 2 0 1 1-4 0 2 2 0 1 1 4 0zM16 8.5a2 2 0 1 1-4 0 2 2 0 1 1 4 0zM33 9a2 2 0 1 1-4 0 2 2 0 1 1 4 0z" /><path d="M9 26c8.5-1.5 21-1.5 27 0l2-12-7 11V11l-5.5 13.5-3-15-3 15-5.5-14V25L7 14l2 12zM9 26c0 2 1.5 2 2.5 4 1 1.5 1 1 .5 3.5-1.5 1-1.5 2.5-1.5 2.5-1.5 1.5.5 2.5.5 2.5 6.5 1 16.5 1 23 0 0 0 1.5-1 0-2.5 0 0 .5-1.5-1-2.5-.5-2.5-.5-2 .5-3.5 1-2 2.5-2 2.5-4-8.5-1.5-18.5-1.5-27 0z" stroke-linecap="butt" /><path d="M11.5 30c3.5-1 18.5-1 22 0M12 33.5c6-1 15-1 21 0" fill="none" /></g></defs><rect x="0" y="315" width="45" height="45" class="square dark a1" stroke="none" fill="#d18b47" /><rect x="45" y="315" width="45" height="45" class="square light b1" stroke="none" fill="#ffce9e" /><rect x="90" y="315" width="45" height="45" class="square dark c1" stroke="none" fill="#d18b47" /><rect x="135" y="315" width="45" height="45" class="square light d1" stroke="none" fill="#ffce9e" /><rect x="180" y="315" width="45" height="45" class="square dark e1" stroke="none" fill="#d18b47" /><rect x="225" y="315" width="45" height="45" class="square light f1" stroke="none" fill="#ffce9e" /><rect x="270" y="315" width="45" height="45" class="square dark g1" stroke="none" fill="#d18b47" /><rect x="315" y="315" width="45" height="45" class="square light h1" stroke="none" fill="#ffce9e" /><rect x="0" y="270" width="45" height="45" class="square light a2" stroke="none" fill="#ffce9e" /><rect x="45" y="270" width="45" height="45" class="square dark b2" stroke="none" fill="#d18b47" /><rect x="90" y="270" width="45" height="45" class="square light c2" stroke="none" fill="#ffce9e" /><rect x="135" y="270" width="45" height="45" class="square dark d2" stroke="none" fill="#d18b47" /><rect x="180" y="270" width="45" height="45" class="square light e2" stroke="none" fill="#ffce9e" /><rect x="225" y="270" width="45" height="45" class="square dark f2" stroke="none" fill="#d18b47" /><rect x="270" y="270" width="45" height="45" class="square light g2" stroke="none" fill="#ffce9e" /><rect x="315" y="270" width="45" height="45" class="square dark h2" stroke="none" fill="#d18b47" /><rect x="0" y="225" width="45" height="45" class="square dark a3" stroke="none" fill="#d18b47" /><rect x="45" y="225" width="45" height="45" class="square light b3" stroke="none" fill="#ffce9e" /><rect x="90" y="225" width="45" height="45" class="square dark c3" stroke="none" fill="#d18b47" /><rect x="135" y="225" width="45" height="45" class="square light d3" stroke="none" fill="#ffce9e" /><rect x="180" y="225" width="45" height="45" class="square dark e3" stroke="none" fill="#d18b47" /><rect x="225" y="225" width="45" height="45" class="square light f3" stroke="none" fill="#ffce9e" /><rect x="270" y="225" width="45" height="45" class="square dark g3" stroke="none" fill="#d18b47" /><rect x="315" y="225" width="45" height="45" class="square light h3" stroke="none" fill="#ffce9e" /><rect x="0" y="180" width="45" height="45" class="square light a4" stroke="none" fill="#ffce9e" /><rect x="45" y="180" width="45" height="45" class="square dark b4" stroke="none" fill="#d18b47" /><rect x="90" y="180" width="45" height="45" class="square light c4" stroke="none" fill="#ffce9e" /><rect x="135" y="180" width="45" height="45" class="square dark d4" stroke="none" fill="#d18b47" /><rect x="180" y="180" width="45" height="45" class="square light e4" stroke="none" fill="#ffce9e" /><rect x="225" y="180" width="45" height="45" class="square dark f4" stroke="none" fill="#d18b47" /><rect x="270" y="180" width="45" height="45" class="square light g4" stroke="none" fill="#ffce9e" /><rect x="315" y="180" width="45" height="45" class="square dark h4" stroke="none" fill="#d18b47" /><rect x="0" y="135" width="45" height="45" class="square dark a5" stroke="none" fill="#d18b47" /><rect x="45" y="135" width="45" height="45" class="square light b5" stroke="none" fill="#ffce9e" /><rect x="90" y="135" width="45" height="45" class="square dark c5" stroke="none" fill="#d18b47" /><rect x="135" y="135" width="45" height="45" class="square light d5" stroke="none" fill="#ffce9e" /><rect x="180" y="135" width="45" height="45" class="square dark e5" stroke="none" fill="#d18b47" /><rect x="225" y="135" width="45" height="45" class="square light f5" stroke="none" fill="#ffce9e" /><rect x="270" y="135" width="45" height="45" class="square dark g5" stroke="none" fill="#d18b47" /><rect x="315" y="135" width="45" height="45" class="square light h5" stroke="none" fill="#ffce9e" /><rect x="0" y="90" width="45" height="45" class="square light a6" stroke="none" fill="#ffce9e" /><rect x="45" y="90" width="45" height="45" class="square dark b6" stroke="none" fill="#d18b47" /><rect x="90" y="90" width="45" height="45" class="square light c6" stroke="none" fill="#ffce9e" /><rect x="135" y="90" width="45" height="45" class="square dark d6" stroke="none" fill="#d18b47" /><rect x="180" y="90" width="45" height="45" class="square light e6" stroke="none" fill="#ffce9e" /><rect x="225" y="90" width="45" height="45" class="square dark f6" stroke="none" fill="#d18b47" /><rect x="270" y="90" width="45" height="45" class="square light g6" stroke="none" fill="#ffce9e" /><rect x="315" y="90" width="45" height="45" class="square dark h6" stroke="none" fill="#d18b47" /><rect x="0" y="45" width="45" height="45" class="square dark a7" stroke="none" fill="#d18b47" /><rect x="45" y="45" width="45" height="45" class="square light b7" stroke="none" fill="#ffce9e" /><rect x="90" y="45" width="45" height="45" class="square dark c7" stroke="none" fill="#d18b47" /><rect x="135" y="45" width="45" height="45" class="square light d7" stroke="none" fill="#ffce9e" /><rect x="180" y="45" width="45" height="45" class="square dark e7" stroke="none" fill="#d18b47" /><rect x="225" y="45" width="45" height="45" class="square light f7" stroke="none" fill="#ffce9e" /><rect x="270" y="45" width="45" height="45" class="square dark g7" stroke="none" fill="#d18b47" /><rect x="315" y="45" width="45" height="45" class="square light h7" stroke="none" fill="#ffce9e" /><rect x="0" y="0" width="45" height="45" class="square light a8" stroke="none" fill="#ffce9e" /><rect x="45" y="0" width="45" height="45" class="square dark b8" stroke="none" fill="#d18b47" /><rect x="90" y="0" width="45" height="45" class="square light c8" stroke="none" fill="#ffce9e" /><rect x="135" y="0" width="45" height="45" class="square dark d8" stroke="none" fill="#d18b47" /><rect x="180" y="0" width="45" height="45" class="square light e8" stroke="none" fill="#ffce9e" /><rect x="225" y="0" width="45" height="45" class="square dark f8" stroke="none" fill="#d18b47" /><rect x="270" y="0" width="45" height="45" class="square light g8" stroke="none" fill="#ffce9e" /><rect x="315" y="0" width="45" height="45" class="square dark h8" stroke="none" fill="#d18b47" /><use href="#white-queen" xlink:href="#white-queen" transform="translate(135, 180)" /><line x1="202.5" y1="157.5" x2="310.45316561961454" y2="49.54683438038544" stroke="#cc0000cc" stroke-width="9.0" stroke-linecap="butt" class="arrow" /><polygon points="334.3180194846605,25.681980515339465 298.5207386870915,37.61440744786245 322.38559255213755,61.479261312908434" fill="#cc0000cc" class="arrow" /><line x1="112.5" y1="247.5" x2="49.54683438038544" y2="310.45316561961454" stroke="#cc0000cc" stroke-width="9.0" stroke-linecap="butt" class="arrow" /><polygon points="25.681980515339465,334.3180194846605 61.479261312908434,322.38559255213755 37.61440744786245,298.5207386870915" fill="#cc0000cc" class="arrow" /><line x1="202.5" y1="247.5" x2="265.45316561961454" y2="310.45316561961454" stroke="#cc0000cc" stroke-width="9.0" stroke-linecap="butt" class="arrow" /><polygon points="289.3180194846605,334.3180194846605 277.38559255213755,298.5207386870915 253.52073868709155,322.38559255213755" fill="#cc0000cc" class="arrow" /><line x1="112.5" y1="157.5" x2="49.54683438038544" y2="94.54683438038543" stroke="#cc0000cc" stroke-width="9.0" stroke-linecap="butt" class="arrow" /><polygon points="25.681980515339465,70.68198051533946 37.61440744786245,106.47926131290842 61.479261312908434,82.61440744786245" fill="#cc0000cc" class="arrow" /><line x1="157.5" y1="157.5" x2="157.5" y2="60.75" stroke="#cc0000cc" stroke-width="9.0" stroke-linecap="butt" class="arrow" /><polygon points="157.5,27.0 140.625,60.75 174.375,60.75" fill="#cc0000cc" class="arrow" /><line x1="157.5" y1="247.5" x2="157.5" y2="299.25" stroke="#cc0000cc" stroke-width="9.0" stroke-linecap="butt" class="arrow" /><polygon points="157.5,333.0 174.375,299.25 140.625,299.25" fill="#cc0000cc" class="arrow" /><line x1="112.5" y1="202.5" x2="60.75" y2="202.5" stroke="#cc0000cc" stroke-width="9.0" stroke-linecap="butt" class="arrow" /><polygon points="27.0,202.5 60.75,219.375 60.75,185.625" fill="#cc0000cc" class="arrow" /><line x1="202.5" y1="202.5" x2="299.25" y2="202.5" stroke="#cc0000cc" stroke-width="9.0" stroke-linecap="butt" class="arrow" /><polygon points="333.0,202.5 299.25,185.625 299.25,219.375" fill="#cc0000cc" class="arrow" /></svg>