<svg xmlns="http://www.w3.org/2000/svg" xmlns:xlink="http://www.w3.org/1999/xlink" viewBox="0 0 360 360" width="250" height="250"><desc><pre>. . . . . . . .
. . . . . . . .
. . . . . . . .
. . . . . . . .
. . . . . . . .
. . . . . . . .
. . . . . . . .
. . . . . . . .</pre></desc><defs /><rect x="0" y="315" width="45" height="45" class="square dark a1" stroke="none" fill="#d18b47" /><rect x="45" y="315" width="45" height="45" class="square light b1" stroke="none" fill="#ffce9e" /><rect x="90" y="315" width="45" height="45" class="square dark c1" stroke="none" fill="#d18b47" /><rect x="135" y="315" width="45" height="45" class="square light d1" stroke="none" fill="#ffce9e" /><rect x="180" y="315" width="45" height="45" class="square dark e1" stroke="none" fill="#d18b47" /><rect x="225" y="315" width="45" height="45" class="square light f1" stroke="none" fill="#ffce9e" /><rect x="270" y="315" width="45" height="45" class="square dark g1" stroke="none" fill="#d18b47" /><rect x="315" y="315" width="45" height="45" class="square light h1" stroke="none" fill="#ffce9e" /><rect x="0" y="270" width="45" height="45" class="square light a2" stroke="none" fill="#ffce9e" /><rect x="45" y="270" width="45" height="45" class="square dark b2" stroke="none" fill="#d18b47" /><rect x="90" y="270" width="45" height="45" class="square light c2" stroke="none" fill="#ffce9e" /><rect x="135" y="270" width="45" height="45" class="square dark d2" stroke="none" fill="#d18b47" /><rect x="180" y="270" width="45" height="45" class="square light e2" stroke="none" fill="#ffce9e" /><rect x="225" y="270" width="45" height="45" class="square dark f2" stroke="none" fill="#d18b47" /><rect x="270" y="270" width="45" height="45" class="square light g2" stroke="none" fill="#ffce9e" /><rect x="315" y="270" width="45" height="45" class="square dark h2" stroke="none" fill="#d18b47" /><rect x="0" y="225" width="45" height="45" class="square dark a3" stroke="none" fill="#d18b47" /><rect x="45" y="225" width="45" height="45" class="square light b3" stroke="none" fill="#ffce9e" /><rect x="90" y="225" width="45" height="45" class="square dark c3" stroke="none" fill="#d18b47" /><rect x="135" y="225" width="45" height="45" class="square light d3" stroke="none" fill="#ffce9e" /><rect x="180" y="225" width="45" height="45" class="square dark e3" stroke="none" fill="#d18b47" /><rect x="225" y="225" width="45" height="45" class="square light f3" stroke="none" fill="#ffce9e" /><rect x="270" y="225" width="45" height="45" class="square dark g3" stroke="none" fill="#d18b47" /><rect x="315" y="225" width="45" height="45" class="square light h3" stroke="none" fill="#ffce9e" /><rect x="0" y="180" width="45" height="45" class="square light a4" stroke="none" fill="#ffce9e" /><rect x="45" y="180" width="45" height="45" class="square dark b4" stroke="none" fill="#d18b47" /><rect x="90" y="180" width="45" height="45" class="square light c4" stroke="none" fill="#ffce9e" /><rect x="135" y="180" width="45" height="45" class="square dark d4" stroke="none" fill="#d18b47" /><rect x="180" y="180" width="45" height="45" class="square light e4" stroke="none" fill="#ffce9e" /><rect x="225" y="180" width="45" height="45" class="square dark f4" stroke="none" fill="#d18b47" /><rect x="270" y="180" width="45" height="45" class="square light g4" stroke="none" fill="#ffce9e" /><rect x="315" y="180" width="45" height="45" class="square dark h4" stroke="none" fill="#d18b47" /><rect x="0" y="135" width="45" height="45" class="square dark a5" stroke="none" fill="#d18b47" /><rect x="45" y="135" width="45" height="45" class="square light b5" stroke="none" fill="#ffce9e" /><rect x="90" y="135" width="45" height="45" class="square dark c5" stroke="none" fill="#d18b47" /><rect x="135" y="135" width="45" height="45" class="square light d5" stroke="none" fill="#ffce9e" /><rect x="180" y="135" width="45" height="45" class="square dark e5" stroke="none" fill="#d18b47" /><rect x="225" y="135" width="45" height="45" class="square light f5" stroke="none" fill="#ffce9e" /><rect x="270" y="135" width="45" height="45" class="square dark g5" stroke="none" fill="#d18b47" /><rect x="315" y="135" width="45" height="45" class="square light h5" stroke="none" fill="#ffce9e" /><rect x="0" y="90" width="45" height="45" class="square light a6" stroke="none" fill="#ffce9e" /><rect x="45" y="90" width="45" height="45" class="square dark b6" stroke="none" fill="#d18b47" /><rect x="90" y="90" width="45" height="45" class="square light c6" stroke="none" fill="#ffce9e" /><rect x="135" y="90" width="45" height="45" class="square dark d6" stroke="none" fill="#d18b47" /><rect x="180" y="90" width="45" height="45" class="square light e6" stroke="none" fill="#ffce9e" /><rect x="225" y="90" width="45" height="45" class="square dark f6" stroke="none" fill="#d18b47" /><rect x="270" y="90" width="45" height="45" class="square light g6" stroke="none" fill="#ffce9e" /><rect x="315" y="90" width="45" height="45" class="square dark h6" stroke="none" fill="#d18b47" /><rect x="0" y="45" width="45" height="45" class="square dark a7" stroke="none" fill="#d18b47" /><rect x="45" y="45" width="45" height="45" class="square light b7" stroke="none" fill="#ffce9e" /><rect x="90" y="45" width="45" height="45" class="square dark c7" stroke="none" fill="#d18b47" /><rect x="135" y="45" width="45" height="45" class="square light d7" stroke="none" fill="#ffce9e" /><rect x="180" y="45" width="45" height="45" class="square dark e7" stroke="none" fill="#d18b47" /><rect x="225" y="45" width="45" height="45" class="square light f7" stroke="none" fill="#ffce9e" /><rect x="270" y="45" width="45" height="45" class="square dark g7" stroke="none" fill="#d18b47" /><rect x="315" y="45" width="45" height="45" class="square light h7" stroke="none" fill="#ffce9e" /><rect x="0" y="0" width="45" height="45" class="square light a8" stroke="none" fill="#ffce9e" /><rect x="45" y="0" width="45" height="45" class="square dark b8" stroke="none" fill="#d18b47" /><rect x="90" y="0" width="45" height="45" class="square light c8" stroke="none" fill="#ffce9e" /><rect x="135" y="0" width="45" height="45" class="square dark d8" stroke="none" fill="#d18b47" /><rect x="180" y="0" width="45" height="45" class="square light e8" stroke="none" fill="#ffce9e" /><rect x="225" y="0" width="45" height="45" class="square dark f8" stroke="none" fill="#d18b47" /><rect x="270" y="0" width="45" height="45" class="square light g8" stroke="none" fill="#ffce9e" /><rect x="315" y="0" width="45" height="45" class="square dark h8" stroke="none" fill="#d18b47" /><line x1="22.5" y1="292.5" x2="40.45316561961456" y2="310.45316561961454" stroke="#cc0000cc" stroke-width="9.0" stroke-linecap="butt" class="arrow" /><polygon points="64.31801948466054,334.3180194846605 52.38559255213755,298.5207386870915 28.52073868709157,322.38559255213755" fill="#cc0000cc" class="arrow" /><line x1="22.5" y1="247.5" x2="85.45316561961457" y2="310.45316561961454" stroke="#cc0000cc" stroke-width="9.0" stroke-linecap="butt" class="arrow" /><polygon points="109.31801948466054,334.3180194846605 97.38559255213755,298.5207386870915 73.52073868709158,322.38559255213755" fill="#cc0000cc" class="arrow" /><line x1="22.5" y1="202.5" x2="130.45316561961457" y2="310.45316561961454" stroke="#cc0000cc" stroke-width="9.0" stroke-linecap="butt" class="arrow" /><polygon points="154.31801948466054,334.3180194846605 142.38559255213755,298.5207386870915 118.52073868709158,322.38559255213755" fill="#cc0000cc" class="arrow" /><line x1="22.5" y1="157.5" x2="175.45316561961457" y2="310.45316561961454" stroke="#cc0000cc" stroke-width="9.0" stroke-linecap="butt" class="arrow" /><polygon points="199.31801948466054,334.3180194846605 187.38559255213755,298.5207386870915 163.52073868709158,322.38559255213755" fill="#cc0000cc" class="arrow" /><line x1="22.5" y1="112.5" x2="220.45316561961457" y2="310.45316561961454" stroke="#cc0000cc" stroke-width="9.0" stroke-linecap="butt" class="arrow" /><polygon points="244.31801948466054,334.3180194846605 232.38559255213755,298.5207386870915 208.52073868709158,322.38559255213755" fill="#cc0000cc" class="arrow" /><line x1="22.5" y1="67.5" x2="265.45316561961454" y2="310.45316561961454" stroke="#cc0000cc" stroke-width="9.0" stroke-linecap="butt" class="arrow" /><polygon points="289.3180194846605,334.3180194846605 277.38559255213755,298.5207386870915 253.52073868709155,322.38559255213755" fill="#cc0000cc" class="arrow" /><line x1="22.5" y1="22.5" x2="310.45316561961454" y2="310.45316561961454" stroke="#cc0000cc" stroke-width="9.0" stroke-linecap="butt" class="arrow" /><polygon points="334.3180194846605,334.3180194846605 322.38559255213755,298.5207386870915 298.5207386870915,322.38559255213755" fill="#cc0000cc" class="arrow" /><line x1="67.5" y1="22.5" x2="310.45316561961454" y2="265.45316561961454" stroke="#cc0000cc" stroke-width="9.0" stroke-linecap="butt" class="arrow" /><polygon points="334.3180194846605,289.3180194846605 322.38559255213755,253.52073868709155 298.5207386870915,277.38559255213755" fill="#cc0000cc" class="arrow" /><line x1="112.5" y1="22.5" x2="310.45316561961454" y2="220.45316561961457" stroke="#cc0000cc" stroke-width="9.0" stroke-linecap="butt" class="arrow" /><polygon points="334.3180194846605,244.31801948466054 322.38559255213755,208.52073868709158 298.5207386870915,232.38559255213755" fill="#cc0000cc" class="arrow" /><line x1="157.5" y1="22.5" x2="310.45316561961454" y2="175.45316561961457" stroke="#cc0000cc" stroke-width="9.0" stroke-linecap="butt" class="arrow" /><polygon points="334.3180194846605,199.31801948466054 322.38559255213755,163.52073868709158 298.5207386870915,187.38559255213755" fill="#cc0000cc" class="arrow" /><line x1="202.5" y1="22.5" x2="310.45316561961454" y2="130.45316561961457" stroke="#cc0000cc" stroke-width="9.0" stroke-linecap="butt" class="arrow" /><polygon points="334.3180194846605,154.31801948466054 322.38559255213755,118.52073868709158 298.5207386870915,142.38559255213755" fill="#cc0000cc" class="arrow" /><line x1="247.5" y1="22.5" x2="310.45316561961454" y2="85.45316561961457" stroke="#cc0000cc" stroke-width="9.0" stroke-linecap="butt" class="arrow" /><polygon points="334.3180194846605,109.31801948466054 322.38559255213755,73.52073868709158 298.5207386870915,97.38559255213755" fill="#cc0000cc" class="arrow" /><line x1="292.5" y1="22.5" x2="310.45316561961454" y2="40.45316561961456" stroke="#cc0000cc" stroke-width="9.0" stroke-linecap="butt" class="arrow" /><polygon points="334.3180194846605,64.31801948466054 322.38559255213755,28.52073868709157 298.5207386870915,52.38559255213755" fill="#cc0000cc" class="arrow" /></svg>